PathFileType	4	(X/Y/Z)	D:\Share\Shared_Data\Ergonomics\Sit To Stand Pertubation\S1\S1 Cal 01.trc
DataRate	CameraRate	NumFrames	NumMarkers	Units	OrigDataRate	OrigDataStartFrame	OrigNumFrames	
100	100	16	21	mm	100	89	237
Frame#	Time	R_ASIS			R_Pelvis			V_Sacral			L_Pelvis			L_ASIS			Clavical			R_Acromium			L_Acromium			Sternum			Torso			R_Thigh_Med			R_Thigh_Lat			R_Thigh			R_Shank_Med			R_Shank_Lat			R_Shank			R_Heel			R_Toe			RAJC			RHJC			RKJC			
		X1	Y1	Z1	X2	Y2	Z2	X3	Y3	Z3	X4	Y4	Z4	X5	Y5	Z5	X6	Y6	Z6	X7	Y7	Z7	X8	Y8	Z8	X9	Y9	Z9	X10	Y10	Z10	X11	Y11	Z11	X12	Y12	Z12	X13	Y13	Z13	X14	Y14	Z14	X15	Y15	Z15	X16	Y16	Z16	X17	Y17	Z17	X18	Y18	Z18	X19	Y19	Z19	X20	Y20	Z20	X21	Y21	Z21	

89	0.88	443.80121	912.4162	66.904068	376.79364	911.83661	92.295311	302.06329	907.54364	-66.457016	422.39069	899.76929	-194.11864	499.6615	898.5625	-130.76813	448.24869	1253.8071	-46.554131	354.04202	1315.6726	91.836166	400.31549	1319.7312	-188.51247	415.56583	1263.4258	51.946995	454.17117	1259.9282	-107.23341	334.76019	419.1647	3.371659	359.57809	442.02377	129.63026	448.30316	599.11139	75.357986	330.68951	96.186554	50.863663	309.20123	96.563988	129.48563	323.38702	308.63913	149.07265	263.4957	39.486557	75.770226	469.55154	50.098549	91.467178	319.94537	96.375271	90.1746465	399.9981476	838.4056863	30.86293956	347.16914	430.594235	66.5009595
90	0.89	443.96683	912.43719	66.922462	376.98355	911.86475	92.379539	302.15161	907.61938	-66.344704	422.38062	899.82288	-194.08037	499.68542	898.59637	-130.8065	448.19803	1253.8878	-46.551254	354.00708	1315.7883	91.793709	400.2298	1319.8749	-188.53984	415.52005	1263.5267	51.966034	454.07312	1259.9558	-107.24735	334.78156	419.20938	3.3392401	359.67386	442.01807	129.69281	447.47266	598.8681	75.257584	330.70996	96.217216	50.871929	309.22925	96.574379	129.49733	323.48322	308.65097	149.1022	263.50073	39.523777	75.796822	469.56113	50.085861	91.447876	319.969605	96.3957975	90.1846295	400.1233428	838.4383899	30.90120473	347.22771	430.613725	66.51602505
91	0.9	444.14145	912.46118	66.955544	377.18381	911.88684	92.460884	302.26593	907.67883	-66.223526	422.40756	899.86176	-194.03976	499.7182	898.62604	-130.80327	448.1489	1253.9545	-46.550442	353.96011	1315.8967	91.813904	400.1207	1319.8466	-188.43004	415.4736	1263.6215	51.963856	454.00583	1260.0059	-107.24816	334.82373	419.24081	3.3766072	359.74091	442.01645	129.72705	447.26913	598.88739	75.139969	330.71106	96.235107	50.857334	309.26465	96.61676	129.5126	323.54926	308.65768	149.11835	263.52209	39.554272	75.760895	469.59665	50.095596	91.461632	319.987855	96.4259335	90.184967	400.2659242	838.4764481	30.96224251	347.28232	430.62863	66.5518286
92	0.91	444.30017	912.49133	66.999519	377.33505	911.91284	92.545586	302.36255	907.71704	-66.10537	422.43924	899.89087	-193.98576	499.95682	898.646	-130.74239	448.10809	1254.0281	-46.528862	353.89426	1315.9972	91.793129	400.35526	1319.8463	-188.40134	415.43924	1263.7059	51.982849	453.98636	1260.0812	-107.22372	334.89325	419.27621	3.4354408	359.83011	442.01617	129.74796	448.51596	599.20288	75.303757	330.73428	96.25396	50.878361	309.28903	96.623001	129.51848	323.58878	308.66617	149.15085	263.52158	39.542274	75.829338	469.57779	50.081436	91.451408	320.011655	96.4384805	90.1984205	400.417575	838.504163	30.9854928	347.36168	430.64619	66.5917004
93	0.92	444.47012	912.51794	67.072128	377.5097	911.93451	92.559891	302.461	907.72711	-66.0056	422.49768	899.91626	-193.90155	499.99274	898.66418	-130.70578	448.06464	1254.1072	-46.492363	353.81558	1316.0668	91.829651	400.27374	1319.923	-188.3512	415.41302	1263.8077	52.002045	453.97693	1260.1677	-107.22375	334.93668	419.31714	3.4667878	359.90063	442.02414	129.79178	448.58807	599.1792	75.351593	330.74756	96.274742	50.870796	309.30386	96.648239	129.51407	323.65039	308.68039	149.17964	263.53656	39.564072	75.746811	469.56998	50.074532	91.442108	320.02571	96.4614905	90.192433	400.5666017	838.5277418	31.09221811	347.418655	430.67064	66.6292839
94	0.93	444.67413	912.54614	67.186958	377.63928	911.94025	92.633873	302.58014	907.73389	-65.902756	422.58282	899.92804	-193.78996	500.04523	898.6568	-130.66179	448.03549	1254.1479	-46.466602	353.76886	1316.1036	91.851662	400.22983	1319.9805	-188.31053	415.3862	1263.8401	52.0583	453.99188	1260.2662	-107.20201	334.97668	419.34766	3.5040007	359.927	442.01709	129.77022	448.69989	599.18103	75.420273	330.73849	96.294029	50.854462	309.30432	96.651344	129.52052	323.69547	308.68985	149.23398	263.54712	39.601547	75.777145	469.59494	50.073566	91.466125	320.021405	96.4726865	90.187491	400.7378904	838.5435575	31.24917362	347.45184	430.682375	66.63711035
95	0.94	444.82477	912.55066	67.284531	377.80215	911.95386	92.700768	302.6738	907.73627	-65.806282	422.67401	900.00421	-193.52893	500.13287	898.67749	-130.56163	448.02213	1254.1818	-46.421345	353.71613	1316.1223	91.931496	400.17776	1320.0433	-188.27728	415.35062	1263.8668	52.117298	453.99286	1260.3179	-107.17474	334.99869	419.3801	3.5386288	359.98099	442.0361	129.81197	448.79922	599.17529	75.506065	330.76419	96.313538	50.877087	309.30988	96.656746	129.52611	323.72379	308.70316	149.25214	263.53549	39.615803	75.766083	469.5556	50.062084	91.454681	320.037035	96.485142	90.2015985	400.8753813	838.5542148	31.35661289	347.48984	430.7081	66.6752994
96	0.95	444.93463	912.53571	67.371544	377.89639	911.94586	92.784065	302.76456	907.72052	-65.718781	422.7894	900.00513	-193.42072	500.24741	898.69684	-130.44324	448.02847	1254.2201	-46.374821	353.6785	1316.1121	91.979187	399.89096	1320.2917	-188.30168	415.33862	1263.8611	52.158199	453.98209	1260.3396	-107.12331	335.02008	419.39124	3.5608721	359.98483	442.03137	129.84834	448.85938	599.15961	75.572731	330.76584	96.329437	50.886261	309.30914	96.654633	129.52496	323.72177	308.68777	149.26808	263.54446	39.592693	75.787903	469.57767	50.056889	91.45018	320.03749	96.492035	90.2056105	400.9903783	838.5477084	31.434792	347.502455	430.711305	66.70460605
97	0.96	445.02863	912.52869	67.468079	377.97437	911.9328	92.867104	302.84857	907.73413	-65.656967	422.82248	899.99457	-193.34616	500.30743	898.65479	-130.38664	448.02844	1254.2412	-46.338066	353.65198	1316.056	92.049149	399.82629	1320.3113	-188.21199	415.30933	1263.8212	52.217003	453.9552	1260.3313	-107.09225	335.05734	419.37769	3.6502771	359.99185	442.02835	129.89764	448.90161	599.14221	75.669899	330.76215	96.330475	50.879799	309.32855	96.667709	129.53603	323.71713	308.68301	149.29994	263.54413	39.597206	75.74855	469.6145	50.077682	91.47821	320.04535	96.499092	90.2079145	401.0598765	838.5390877	31.54247804	347.524595	430.70302	66.77395855
98	0.97	445.09549	912.51086	67.553337	378.07147	911.91693	92.929688	302.96408	907.73401	-65.603111	422.82077	900.02423	-193.26711	500.35526	898.60602	-130.33003	448.06036	1254.2457	-46.29731	353.62662	1315.9913	92.127808	399.74521	1320.3167	-188.18599	415.32535	1263.7808	52.256104	453.90753	1260.2867	-107.06197	335.06601	419.3894	3.7104821	359.98898	442.02606	129.93277	448.93158	599.12457	75.767471	330.76096	96.342407	50.899799	309.31198	96.670906	129.53497	323.69183	308.66516	149.31	263.53891	39.609623	75.7995	469.5788	50.07576	91.460236	320.03647	96.5066565	90.2173845	401.1185513	838.5209016	31.63870661	347.527495	430.70773	66.82162605
99	0.98	445.15924	912.48596	67.648788	378.14468	911.90149	92.997215	303.04712	907.70459	-65.525246	422.84229	900.00708	-193.24336	500.45151	898.58044	-130.25204	448.07684	1254.2444	-46.259163	353.61017	1315.926	92.187103	399.66507	1320.278	-188.13599	415.31723	1263.7156	52.309456	453.83585	1260.1903	-107.06449	335.09155	419.40149	3.775739	359.97238	442.03281	129.97154	448.95084	599.1051	75.886772	330.758	96.35067	50.903366	309.30887	96.645767	129.53136	323.67053	308.65506	149.32755	263.54523	39.607437	75.753639	469.57196	50.071003	91.444809	320.033435	96.4982185	90.217363	401.1902956	838.4866825	31.72515023	347.531965	430.71715	66.8736395
100	0.99	445.26361	912.47174	67.746628	378.20511	911.88574	93.063583	303.15598	907.68445	-65.47715	422.75922	899.99469	-193.24112	500.56589	898.55487	-130.10989	448.08853	1254.2349	-46.236267	353.59521	1315.8754	92.26268	399.54974	1320.187	-188.10881	415.30127	1263.6542	52.351871	453.75378	1260.1052	-107.04749	335.09622	419.3949	3.8197665	359.92368	442.02869	129.98706	449.00101	599.09845	75.992989	330.76733	96.341934	50.917007	309.30103	96.649117	129.53976	323.64948	308.64929	149.34323	263.53607	39.595146	75.75721	469.58881	50.075943	91.453896	320.03418	96.4955255	90.2283835	401.2913208	838.483755	31.82763753	347.50995	430.711795	66.90341325
101	1	445.29614	912.44769	67.820618	378.2941	911.87695	93.119713	303.26071	907.67993	-65.438339	422.73312	899.97491	-193.25476	500.70679	898.52631	-129.96869	448.1058	1254.2249	-46.192223	353.57431	1315.8199	92.290092	399.46997	1320.1055	-188.11874	415.28043	1263.6128	52.405895	453.69962	1260.0109	-107.02958	335.09988	419.39731	3.8506143	359.92627	442.04523	130.01053	449.68176	599.26727	76.024879	330.7659	96.35022	50.92551	309.29358	96.640762	129.53944	323.61972	308.6452	149.36595	263.53821	39.587639	75.721046	469.58603	50.090229	91.463097	320.02974	96.495491	90.232475	401.3365029	838.4756243	31.88057879	347.513075	430.72127	66.93057215
102	1.01	445.38336	912.42792	67.908485	378.33987	911.86499	93.183548	303.36667	907.71234	-65.392448	422.7579	899.90338	-193.33284	500.72116	898.52179	-129.86964	448.09024	1254.2047	-46.156212	353.54868	1315.804	92.348137	399.41873	1320.0273	-188.09805	415.24896	1263.566	52.449959	453.64218	1259.9434	-107.01151	335.11111	419.42398	3.909193	359.93011	442.04245	129.95064	449.6615	599.198	76.132393	330.75754	96.372353	50.921471	309.26764	96.623123	129.53973	323.60333	308.62949	149.37985	263.52716	39.610947	75.787315	469.56644	50.071693	91.459808	320.01259	96.497738	90.2306005	401.4009905	838.4830472	31.97857369	347.52061	430.733215	66.9299165
103	1.02	445.42709	912.40979	67.976044	378.39142	911.85834	93.275772	303.4783	907.71155	-65.375092	423.31598	899.79846	-193.24442	500.88708	898.5036	-129.7361	448.06482	1254.1962	-46.102722	353.52179	1315.8173	92.436653	399.34686	1319.9703	-188.11017	415.23532	1263.5615	52.497993	453.60489	1259.9078	-106.98754	335.10727	419.40002	3.9214027	359.91394	442.03442	130.00272	449.4165	599.09937	76.220924	330.76346	96.369202	50.937305	309.27521	96.620178	129.54694	323.59845	308.6312	149.42863	263.53513	39.582691	75.773445	469.57352	50.078568	91.477043	320.019335	96.49469	90.2421225	401.4587793	838.4786836	32.01962688	347.510605	430.71722	66.96206135
104	1.03	445.48874	912.41138	68.039131	378.42657	911.8551	93.343765	303.57043	907.71082	-65.324791	423.43524	899.797	-193.16891	500.9812	898.5036	-129.64117	448.0206	1254.1761	-46.050564	353.48724	1315.8378	92.481575	399.27924	1319.9264	-188.1134	415.21887	1263.5575	52.537659	453.60934	1259.8888	-106.96737	335.14087	419.39114	4.0553932	359.92609	442.02597	130.01453	449.21039	599.04492	76.256355	330.7605	96.368645	50.937408	309.27087	96.623711	129.55524	323.58942	308.61798	149.44765	263.5365	39.572842	75.719337	469.57977	50.067039	91.484787	320.015685	96.496178	90.246324	401.5289021	838.4861365	32.07914941	347.53348	430.708555	67.0349616
